<?xml version="1.0" encoding="utf-8"?>
<!-- Generator: Adobe Illustrator 27.0.0, SVG Export Plug-In . SVG Version: 6.00 Build 0)  -->
<svg version="1.1" id="Layer_1" xmlns="http://www.w3.org/2000/svg" xmlns:xlink="http://www.w3.org/1999/xlink" x="0px" y="0px"
	 viewBox="0 0 500 500" style="enable-background:new 0 0 500 500;" xml:space="preserve">
<style type="text/css">
	.st0{display:none;}
	.st1{display:inline;fill:#EBEBEB;}
	.st2{display:inline;fill:#F5F5F5;}
	.st3{display:inline;fill:#F0F0F0;}
	.st4{fill:#E5245A;}
	.st5{opacity:0.1;fill:#FFFFFF;enable-background:new    ;}
	.st6{opacity:0.5;fill:#FFFFFF;enable-background:new    ;}
	.st7{opacity:0.1;enable-background:new    ;}
	.st8{opacity:0.2;enable-background:new    ;}
	.st9{fill:#FFFFFF;}
	.st10{opacity:0.3;enable-background:new    ;}
	.st11{opacity:0.2;fill:#FFFFFF;enable-background:new    ;}
	.st12{opacity:0.3;fill:#FFFFFF;enable-background:new    ;}
	.st13{opacity:0.5;fill:#E5245A;enable-background:new    ;}
	.st14{opacity:0.6;fill:#FFFFFF;enable-background:new    ;}
	.st15{opacity:0.8;fill:#FFFFFF;enable-background:new    ;}
</style>
<g id="freepik--background-complete--inject-5" class="st0">
	<rect y="382.4" class="st1" width="500" height="0.2"/>
	<rect x="416.8" y="398.5" class="st1" width="33.1" height="0.2"/>
	<rect x="322.5" y="401.2" class="st1" width="8.7" height="0.2"/>
	<rect x="396.6" y="389.2" class="st1" width="19.2" height="0.2"/>
	<rect x="52.5" y="390.9" class="st1" width="43.2" height="0.2"/>
	<rect x="104.6" y="390.9" class="st1" width="6.3" height="0.2"/>
	<rect x="131.5" y="395.1" class="st1" width="93.7" height="0.2"/>
	<path class="st1" d="M237,337.8H43.9c-3.1,0-5.7-2.6-5.7-5.7V60.7c0-3.1,2.6-5.7,5.7-5.7H237c3.2,0,5.7,2.6,5.7,5.7c0,0,0,0,0,0
		v271.4C242.7,335.2,240.2,337.8,237,337.8z M43.9,55.2c-3,0-5.5,2.4-5.5,5.5v271.4c0,3,2.4,5.5,5.5,5.5H237c3,0,5.5-2.4,5.5-5.5
		V60.7c0-3-2.4-5.5-5.5-5.5H43.9z"/>
	<path class="st1" d="M453.3,337.8H260.2c-3.2,0-5.7-2.6-5.7-5.7V60.7c0-3.1,2.6-5.7,5.7-5.7h193.1c3.1,0,5.7,2.5,5.7,5.7v271.4
		C459,335.2,456.5,337.8,453.3,337.8z M260.2,55.2c-3,0-5.5,2.4-5.5,5.5v271.4c0,3,2.4,5.5,5.5,5.5h193.1c3,0,5.5-2.4,5.5-5.5V60.7
		c0-3-2.4-5.5-5.5-5.5H260.2z"/>
	<path class="st2" d="M215.4,75.3l0.8,1.7c0.1,0.2,0.3,0.3,0.5,0.4l1.9,0.3c0.4,0.1,0.6,0.4,0.6,0.8c0,0.1-0.1,0.3-0.2,0.4l-1.4,1.3
		c-0.2,0.2-0.2,0.4-0.2,0.6l0.3,1.9c0.1,0.4-0.2,0.7-0.5,0.8c-0.2,0-0.3,0-0.5-0.1l-1.7-0.9c-0.2-0.1-0.4-0.1-0.6,0l-1.7,0.9
		c-0.3,0.2-0.7,0.1-0.9-0.3c-0.1-0.1-0.1-0.3-0.1-0.5l0.3-1.9c0-0.2,0-0.4-0.2-0.6l-1.4-1.3c-0.3-0.3-0.3-0.7,0-1
		c0.1-0.1,0.2-0.2,0.4-0.2l1.9-0.3c0.2,0,0.4-0.2,0.5-0.4l0.8-1.7c0.2-0.3,0.6-0.5,0.9-0.3C215.2,75.1,215.3,75.2,215.4,75.3z"/>
	<path class="st3" d="M90.9,216.2l0.8,1.7c0.1,0.2,0.3,0.3,0.5,0.4l1.9,0.3c0.4,0.1,0.6,0.4,0.6,0.8c0,0.1-0.1,0.3-0.2,0.4l-1.4,1.3
		c-0.2,0.2-0.2,0.4-0.2,0.6l0.3,1.9c0.1,0.4-0.2,0.7-0.5,0.8c-0.2,0-0.3,0-0.5-0.1l-1.7-0.9c-0.2-0.1-0.4-0.1-0.6,0l-1.7,0.9
		c-0.3,0.2-0.7,0.1-0.9-0.3c-0.1-0.1-0.1-0.3-0.1-0.5l0.3-1.9c0-0.2,0-0.4-0.2-0.6l-1.4-1.3c-0.3-0.3-0.3-0.7,0-1
		c0.1-0.1,0.2-0.2,0.4-0.2l1.9-0.3c0.2,0,0.4-0.2,0.5-0.4l0.8-1.7c0.2-0.3,0.6-0.5,0.9-0.3C90.7,215.9,90.8,216,90.9,216.2z"/>
	<path class="st3" d="M75.2,121.7l0.8,1.7c0.1,0.2,0.3,0.3,0.5,0.4l1.9,0.3c0.4,0.1,0.6,0.4,0.6,0.8c0,0.1-0.1,0.3-0.2,0.4l-1.4,1.3
		c-0.2,0.2-0.2,0.4-0.2,0.6l0.3,1.9c0.1,0.4-0.2,0.7-0.5,0.8c-0.2,0-0.3,0-0.5-0.1l-1.7-0.9c-0.2-0.1-0.4-0.1-0.6,0l-1.7,0.9
		c-0.3,0.2-0.7,0.1-0.9-0.3c-0.1-0.1-0.1-0.3-0.1-0.5l0.3-1.9c0-0.2,0-0.4-0.2-0.6l-1.4-1.3c-0.3-0.3-0.3-0.7,0-1
		c0.1-0.1,0.2-0.2,0.4-0.2l1.9-0.3c0.2,0,0.4-0.2,0.5-0.4l0.8-1.7c0.2-0.3,0.6-0.5,0.9-0.3C75,121.4,75.1,121.5,75.2,121.7z"/>
	<path class="st3" d="M150.9,164.7l0.5,1c0.1,0.1,0.2,0.2,0.3,0.2l1.1,0.2c0.2,0,0.4,0.2,0.3,0.5c0,0.1-0.1,0.2-0.1,0.2l-0.8,0.8
		c-0.1,0.1-0.1,0.2-0.1,0.4l0.2,1.1c0,0.2-0.1,0.4-0.3,0.5c-0.1,0-0.2,0-0.3,0l-1-0.5c-0.1-0.1-0.3-0.1-0.4,0l-1,0.5
		c-0.2,0.1-0.4,0-0.5-0.1c0-0.1-0.1-0.2,0-0.3l0.2-1.1c0-0.1,0-0.3-0.1-0.4l-0.8-0.8c-0.2-0.2-0.2-0.4,0-0.6
		c0.1-0.1,0.1-0.1,0.2-0.1l1.1-0.2c0.1,0,0.2-0.1,0.3-0.2l0.5-1c0.1-0.2,0.4-0.3,0.6-0.1C150.8,164.6,150.9,164.6,150.9,164.7z"/>
	<path class="st2" d="M120.3,295.7l0.5,1c0.1,0.1,0.2,0.2,0.3,0.2l1.1,0.2c0.2,0,0.4,0.2,0.4,0.5c0,0.1-0.1,0.2-0.1,0.2l-0.8,0.8
		c-0.1,0.1-0.1,0.2-0.1,0.4l0.2,1.1c0,0.2-0.1,0.4-0.3,0.5c-0.1,0-0.2,0-0.3,0l-1-0.5c-0.1-0.1-0.3-0.1-0.4,0l-1,0.5
		c-0.2,0.1-0.4,0-0.6-0.2c0-0.1-0.1-0.2,0-0.2l0.2-1.1c0-0.1,0-0.3-0.1-0.4l-0.8-0.8c-0.2-0.2-0.2-0.4,0-0.6
		c0.1-0.1,0.1-0.1,0.2-0.1l1.1-0.2c0.1,0,0.3-0.1,0.3-0.2l0.5-1c0.1-0.2,0.4-0.3,0.6-0.1C120.2,295.6,120.2,295.6,120.3,295.7z"/>
	<path class="st2" d="M434.4,76.9l0.5,1c0.1,0.1,0.2,0.2,0.3,0.2l1.1,0.2c0.2,0,0.4,0.2,0.4,0.5c0,0.1-0.1,0.2-0.1,0.2l-0.8,0.8
		c-0.1,0.1-0.1,0.2-0.1,0.4l0.2,1.1c0,0.2-0.1,0.4-0.3,0.5c-0.1,0-0.2,0-0.3,0l-1-0.5c-0.1-0.1-0.3-0.1-0.4,0l-1,0.5
		c-0.2,0.1-0.4,0-0.6-0.2c0-0.1-0.1-0.2,0-0.2l0.2-1.1c0-0.1,0-0.3-0.1-0.4l-0.8-0.8c-0.2-0.2-0.2-0.4,0-0.6
		c0.1-0.1,0.1-0.1,0.2-0.1l1.1-0.2c0.1,0,0.3-0.1,0.3-0.2l0.5-1c0.1-0.2,0.3-0.3,0.5-0.2C434.3,76.7,434.4,76.8,434.4,76.9z"/>
	<path class="st3" d="M425.7,265.6l0.9,1.8c0.1,0.2,0.3,0.4,0.5,0.4l2,0.3c0.4,0.1,0.7,0.4,0.6,0.8c0,0.2-0.1,0.3-0.2,0.4l-1.5,1.4
		c-0.2,0.2-0.2,0.4-0.2,0.6l0.3,2c0.1,0.4-0.2,0.7-0.6,0.8c-0.1,0-0.3,0-0.4-0.1l-1.8-0.9c-0.2-0.1-0.5-0.1-0.7,0L423,274
		c-0.3,0.2-0.8,0-0.9-0.3c-0.1-0.1-0.1-0.3-0.1-0.4l0.3-2c0-0.2,0-0.5-0.2-0.6l-1.4-1.4c-0.3-0.3-0.3-0.7,0-1
		c0.1-0.1,0.2-0.2,0.4-0.2l2-0.3c0.2,0,0.4-0.2,0.5-0.4l0.9-1.8c0.2-0.3,0.6-0.5,1-0.3C425.6,265.4,425.6,265.5,425.7,265.6z"/>
	<path class="st3" d="M318.6,99.9c0,0.7-0.6,1.3-1.3,1.3c-0.7,0-1.3-0.6-1.3-1.3c0-0.7,0.6-1.3,1.3-1.3l0,0
		C318,98.6,318.6,99.2,318.6,99.9z"/>
	<path class="st2" d="M356.8,357.7c0,0.7-0.6,1.3-1.3,1.3s-1.3-0.6-1.3-1.3s0.6-1.3,1.3-1.3h0C356.2,356.3,356.8,356.9,356.8,357.7
		C356.8,357.7,356.8,357.7,356.8,357.7z"/>
	<path class="st3" d="M132.8,83.3c0,3.1-2.5,5.7-5.7,5.7c-3.1,0-5.7-2.5-5.7-5.7c0-3.1,2.5-5.7,5.7-5.7S132.8,80.2,132.8,83.3
		C132.8,83.3,132.8,83.3,132.8,83.3z"/>
	<path class="st2" d="M186.6,120.9c3.4,0.6,6.9,0.9,10.4,0.9c-4.4,5.1-12,5.7-17.1,1.3c-1.5-1.3-2.7-3-3.4-4.8
		C179.7,119.5,183.1,120.3,186.6,120.9z"/>
	<path class="st2" d="M188.4,110.4c-4-0.7-8-1-12-0.8c2.4-6.3,9.4-9.4,15.7-7c4.6,1.8,7.7,6.1,7.8,11
		C196.2,112.1,192.3,111,188.4,110.4z"/>
	<ellipse transform="matrix(0.1666 -0.986 0.986 0.1666 44.2021 280.0523)" class="st2" cx="187.8" cy="113.9" rx="4.2" ry="19.1"/>
	<path class="st2" d="M433.6,202.8c-19.6,39.2-67.2,55.1-106.4,35.5c0,0,0,0,0,0c-1.6-0.8-3.2-1.6-4.7-2.6
		c50.7-18.8,76.6-75.2,57.8-126c-2.8-7.6-6.6-14.9-11.2-21.6c43.7,3.6,76.2,41.9,72.6,85.6C440.9,183.9,438.2,193.7,433.6,202.8z"/>
	<path class="st3" d="M397.4,109.3c4.3,3.2,7,8.1,7.3,13.5c-2.8-3.8-6.1-7.2-9.9-10c-3.8-2.8-8-5-12.4-6.6
		C387.5,105,393,106.1,397.4,109.3z"/>
	<path class="st3" d="M377.3,229.6c-4.5,3-10.1,3.8-15.2,2.2c4.5-1.3,8.8-3.3,12.8-5.9c3.9-2.6,7.5-5.8,10.5-9.4
		C384.8,221.8,381.8,226.6,377.3,229.6z"/>
	<path class="st3" d="M404.7,154.1c2.3,4.9,2.3,10.5,0,15.4c-0.6-4.7-2-9.2-4-13.5c-2-4.3-4.6-8.2-7.8-11.7
		C398,145.6,402.4,149.2,404.7,154.1z"/>
	<path class="st3" d="M417.5,208.5c-3.4,4.2-8.4,6.7-13.8,6.7c3.9-2.6,7.4-5.8,10.4-9.5c3-3.7,5.4-7.8,7.1-12.1
		C422.3,198.9,420.9,204.4,417.5,208.5z"/>
</g>
<g id="freepik--Shadow--inject-5" class="st0">
	<ellipse id="freepik--path--inject-5" class="st2" cx="250" cy="416.2" rx="193.9" ry="11.3"/>
</g>
<g id="freepik--Rocket--inject-5">
	<path class="st4" d="M254.4,132.8l-0.7-0.6c3.2-4,6.5-7.8,9.8-11.3l0.6,0.6C260.8,125.1,257.5,128.9,254.4,132.8z"/>
	
		<rect x="246.8" y="138" transform="matrix(0.6214 -0.7835 0.7835 0.6214 -14.0522 247.7609)" class="st4" width="5.2" height="0.9"/>
	<path class="st4" d="M320,179.2c21.7-34.9,24.7-69.3,8.9-80.5s-47.2,3.2-72.8,35.5L183,226.4l74.9,52.8L320,179.2z"/>
	<path class="st5" d="M311.5,173.2l-63.6,98.9l-7.8-14.9l63.2-90.2c17.9-25.5,27.9-48.8,27.9-61.8c0-0.6,0.5-1.1,1.1-1.1
		c0.5,0,0.9,0.3,1,0.7C337.7,117.8,329.9,144.5,311.5,173.2z"/>
	
		<ellipse transform="matrix(0.5757 -0.8176 0.8176 0.5757 -113.1258 287.4453)" class="st4" cx="220.4" cy="252.7" rx="31.8" ry="45.8"/>
	
		<ellipse transform="matrix(0.5757 -0.8176 0.8176 0.5757 -113.1258 287.4453)" class="st6" cx="220.4" cy="252.7" rx="31.8" ry="45.8"/>
	<path class="st7" d="M250.1,210.4c-16.4-11.6-35.1-14.9-47-9.5l-18.6,23.4c11-12.3,34.5-11.4,54.2,2.4s28.4,35.7,20.5,50.2l15.6-25
		C276.1,238.8,266.7,222.1,250.1,210.4z"/>
	<path class="st8" d="M276.4,135.1c-4.6,7.2-8,20.7,5.5,30.3s25.1,1.8,30.4-5L276.4,135.1z"/>
	<path class="st9" d="M315.5,152c-1.5,12.9-16.5,22.3-32.1,11.3s-11.8-28.2-0.2-34c7.2-3.6,16.3-2,22.5,2.3S316.5,144,315.5,152z"/>
	<path class="st4" d="M285.6,160.2c-6.1-4.3-9.2-9.9-8.8-15.7c0.4-5.1,3.5-9.7,8.1-12c5.4-2.7,13.1-1.9,18.7,2.1s9,10.9,8.2,16.9
		c-0.6,5.1-3.8,9.5-8.5,11.6C298,165.6,291.6,164.5,285.6,160.2z"/>
	<path class="st10" d="M285.6,160.2c-6.1-4.3-9.2-9.9-8.8-15.7c0.4-5.1,3.5-9.7,8.1-12c5.4-2.7,13.1-1.9,18.7,2.1s9,10.9,8.2,16.9
		c-0.6,5.1-3.8,9.5-8.5,11.6C298,165.6,291.6,164.5,285.6,160.2z"/>
	<path class="st4" d="M285.6,160.2c-6.1-4.3-9.3-9.7-9.1-15.3c0.2-4.8,3.1-9.1,7.5-11.2c5.2-2.4,12.8-1.4,18.4,2.6
		s9.1,10.7,8.6,16.4c-0.4,4.8-3.5,9-8,10.8C297.9,165.7,291.6,164.5,285.6,160.2z"/>
	<path class="st11" d="M285.6,160.2c-6.1-4.3-9.3-9.7-9.1-15.3c0.2-4.8,3.1-9.1,7.5-11.2c5.2-2.4,12.8-1.4,18.4,2.6
		s9.1,10.7,8.6,16.4c-0.4,4.8-3.5,9-8,10.8C297.9,165.7,291.6,164.5,285.6,160.2z"/>
	<path class="st12" d="M306.6,140.3l-28.1,12.4c-1.4-2.4-2.1-5.1-2-7.8c0.1-1.3,0.3-2.6,0.8-3.8l18.2-8
		C299.8,134.3,303.7,136.8,306.6,140.3L306.6,140.3z"/>
	<path class="st12" d="M310.6,148.3l-25.8,11.4c-1.6-1.1-3-2.5-4.2-3.9l28.1-12.4C309.6,144.9,310.2,146.6,310.6,148.3z"/>
	<path class="st7" d="M338.8,126.1c-0.9-6.9-6.2-14.9-14.5-20.8s-17.7-8.2-24.5-6.7c11.5-4.7,21.9-4.9,29.1,0.2
		S339.4,113.6,338.8,126.1z"/>
	
		<ellipse transform="matrix(0.5757 -0.8176 0.8176 0.5757 -102.2051 288.9311)" class="st13" cx="227.3" cy="242.9" rx="9.9" ry="13.9"/>
	<path class="st13" d="M209,246.8c-3.1,4.5-10.8,4.5-17.1,0.1s-8.9-11.7-5.7-16.1s10.8-4.5,17.1-0.1S212.1,242.3,209,246.8z"/>
	<path class="st13" d="M252.7,277.6c-3.1,4.5-10.8,4.5-17.1,0.1s-8.9-11.7-5.7-16.1s10.8-4.5,17.1-0.1S255.9,273.1,252.7,277.6z"/>
	<path class="st13" d="M223,273.4c-3.1,4.5-10.8,4.5-17.1,0.1s-8.9-11.7-5.7-16.1s10.8-4.5,17.1-0.1S226.1,268.9,223,273.4z"/>
	<path class="st13" d="M238.7,251c-0.3,0.5-0.7,0.9-1.2,1.3c1.8-4.5-0.9-10.6-6.5-14.6s-12.3-4.4-15.9-1.2c0.2-0.5,0.5-1,0.8-1.5
		c3.1-4.5,10.8-4.5,17.1-0.1S241.9,246.5,238.7,251z"/>
	<path class="st13" d="M209,246.8c-0.3,0.5-0.7,0.9-1.1,1.3c1.8-4.5-0.9-10.6-6.5-14.6s-12.3-4.4-15.9-1.2c0.2-0.5,0.5-1,0.8-1.5
		c3.1-4.5,10.8-4.5,17.1-0.1S212.1,242.3,209,246.8z"/>
	<path class="st13" d="M252.7,277.6c-0.3,0.5-0.7,0.9-1.1,1.3c1.8-4.5-0.9-10.6-6.5-14.6s-12.3-4.4-15.9-1.2c0.2-0.5,0.5-1,0.8-1.5
		c3.1-4.5,10.8-4.5,17.1-0.1S255.9,273.1,252.7,277.6z"/>
	<path class="st13" d="M223,273.4c-0.3,0.5-0.7,0.9-1.1,1.3c1.8-4.5-0.9-10.6-6.5-14.6s-12.3-4.4-15.9-1.2c0.2-0.5,0.5-1,0.8-1.5
		c3.1-4.5,10.8-4.5,17.1-0.1S226.1,268.9,223,273.4z"/>
	<path class="st4" d="M232.6,168.2c0,0-13.5,17.5-25.3,32.6c-3.4,4.3-8.8,6.4-14.2,5.7c-10.3-1.3-27,6-27,6S197.8,160.6,232.6,168.2
		z"/>
	<path class="st10" d="M232.6,168.2c0,0-13.5,17.5-25.3,32.6c-3.4,4.3-8.8,6.4-14.2,5.7c-10.3-1.3-27,6-27,6
		S197.8,160.6,232.6,168.2z"/>
	<path class="st4" d="M295.9,212.8c0,0-11.9,18.6-22.2,34.8c-2.9,4.6-3.1,10.5-0.6,15.3c4.7,9.2,3.4,27.5,3.4,27.5
		S314.9,243,295.9,212.8z"/>
	<path class="st10" d="M295.9,212.8c0,0-11.9,18.6-22.2,34.8c-2.9,4.6-3.1,10.5-0.6,15.3c4.7,9.2,3.4,27.5,3.4,27.5
		S314.9,243,295.9,212.8z"/>
	<path class="st4" d="M339.5,346.6c12.5-30.6-41.5-39.2-62.9-31.5s-43.2,13.4-44-7.1s15.6-33.1,7.8-37.9c-4.4-2.6-5.6,2-7.7,8.7
		c-6.6,20.6-43.9,25.6-26.7,55.5s8,23.4-20.9,35.4s-14,46.5,13.9,46.5h168.1C444.1,416.2,371.2,268.8,339.5,346.6z"/>
	<path class="st14" d="M339.5,346.6c12.5-30.6-41.5-39.2-62.9-31.5s-43.2,13.4-44-7.1s15.6-33.1,7.8-37.9c-4.4-2.6-5.6,2-7.7,8.7
		c-6.6,20.6-43.9,25.6-26.7,55.5s8,23.4-20.9,35.4s-14,46.5,13.9,46.5h168.1C444.1,416.2,371.2,268.8,339.5,346.6z"/>
	<path class="st4" d="M197.6,240.1c-2.2-7.8-14.4,2-26.3,13.9s-17.8,38.9-29.4,53s-44.6,26.8-31.7,48.1
		c19.1,31.3-24.8,61.3,27.2,61.3h106.5c19.5,0,40.6-23.8,10.3-40s-75.7,21.6-88-14.5c-6.1-17.9,16-9.7,5.8-38.9s-9.6-37.2-4.3-50.3
		C180.2,240.8,201,251.9,197.6,240.1z"/>
	<path class="st14" d="M197.6,240.1c-2.2-7.8-14.4,2-26.3,13.9s-17.8,38.9-29.4,53s-44.6,26.8-31.7,48.1
		c19.1,31.3-24.8,61.3,27.2,61.3h106.5c19.5,0,40.6-23.8,10.3-40s-75.7,21.6-88-14.5c-6.1-17.9,16-9.7,5.8-38.9s-9.6-37.2-4.3-50.3
		C180.2,240.8,201,251.9,197.6,240.1z"/>
	<path class="st4" d="M219.6,243.7c2.6-4.8,11.7-1.9,11.5,4.4s-23.7,14.6-19.3,36.4s46.2,23.4,56.1,45.2s-28.2,24.9-16.9,38.5
		c11.4,13.6,46.4-17.7,71.4-9.6s49.9,57.7,4.1,57.7H185.3c-30.7,0-53.1-63.4-23.6-89.5s5.7-17.6,16.7-34.3S209.5,262.2,219.6,243.7z
		"/>
	<path class="st15" d="M219.6,243.7c2.6-4.8,11.7-1.9,11.5,4.4s-23.7,14.6-19.3,36.4s46.2,23.4,56.1,45.2s-28.2,24.9-16.9,38.5
		c11.4,13.6,46.4-17.7,71.4-9.6s49.9,57.7,4.1,57.7H185.3c-30.7,0-53.1-63.4-23.6-89.5s5.7-17.6,16.7-34.3S209.5,262.2,219.6,243.7z
		"/>
</g>
</svg>
