<?xml version="1.0" encoding="utf-8"?>
<!-- Generator: Adobe Illustrator 27.0.0, SVG Export Plug-In . SVG Version: 6.00 Build 0)  -->
<svg version="1.1" id="Layer_1" xmlns="http://www.w3.org/2000/svg" xmlns:xlink="http://www.w3.org/1999/xlink" x="0px" y="0px"
	 viewBox="0 0 402.1 489.9" style="enable-background:new 0 0 402.1 489.9;" xml:space="preserve">
<style type="text/css">
	.st0{display:none;}
	.st1{display:inline;fill:#EBEBEB;}
	.st2{display:inline;fill:#F5F5F5;}
	.st3{display:inline;fill:#F0F0F0;}
	.st4{fill:#E5245A;}
	.st5{opacity:0.1;fill:#FFFFFF;enable-background:new    ;}
	.st6{opacity:0.5;fill:#FFFFFF;enable-background:new    ;}
	.st7{opacity:0.1;enable-background:new    ;}
	.st8{opacity:0.2;enable-background:new    ;}
	.st9{fill:#FFFFFF;}
	.st10{opacity:0.3;enable-background:new    ;}
	.st11{opacity:0.2;fill:#FFFFFF;enable-background:new    ;}
	.st12{opacity:0.3;fill:#FFFFFF;enable-background:new    ;}
	.st13{opacity:0.5;fill:#E5245A;enable-background:new    ;}
	.st14{opacity:0.6;fill:#FFFFFF;enable-background:new    ;}
	.st15{opacity:0.8;fill:#FFFFFF;enable-background:new    ;}
</style>
<g id="freepik--background-complete--inject-5" class="st0">
	<rect x="-4.5" y="375.3" class="st1" width="500" height="0.2"/>
	<rect x="412.3" y="391.4" class="st1" width="33.1" height="0.2"/>
	<rect x="318" y="394.1" class="st1" width="8.7" height="0.2"/>
	<rect x="392.1" y="382.1" class="st1" width="19.2" height="0.2"/>
	<rect x="48" y="383.8" class="st1" width="43.2" height="0.2"/>
	<rect x="100.1" y="383.8" class="st1" width="6.3" height="0.2"/>
	<rect x="127" y="388" class="st1" width="93.7" height="0.2"/>
	<path class="st1" d="M232.5,330.7H39.4c-3.1,0-5.7-2.6-5.7-5.7V53.6c0-3.1,2.6-5.7,5.7-5.7h193.1c3.2,0,5.7,2.6,5.7,5.7l0,0V325
		C238.2,328.1,235.7,330.7,232.5,330.7z M39.4,48.1c-3,0-5.5,2.4-5.5,5.5V325c0,3,2.4,5.5,5.5,5.5h193.1c3,0,5.5-2.4,5.5-5.5V53.6
		c0-3-2.4-5.5-5.5-5.5H39.4z"/>
	<path class="st1" d="M448.8,330.7H255.7c-3.2,0-5.7-2.6-5.7-5.7V53.6c0-3.1,2.6-5.7,5.7-5.7h193.1c3.1,0,5.7,2.5,5.7,5.7V325
		C454.5,328.1,452,330.7,448.8,330.7z M255.7,48.1c-3,0-5.5,2.4-5.5,5.5V325c0,3,2.4,5.5,5.5,5.5h193.1c3,0,5.5-2.4,5.5-5.5V53.6
		c0-3-2.4-5.5-5.5-5.5H255.7z"/>
	<path class="st2" d="M210.9,68.2l0.8,1.7c0.1,0.2,0.3,0.3,0.5,0.4l1.9,0.3c0.4,0.1,0.6,0.4,0.6,0.8c0,0.1-0.1,0.3-0.2,0.4l-1.4,1.3
		c-0.2,0.2-0.2,0.4-0.2,0.6l0.3,1.9c0.1,0.4-0.2,0.7-0.5,0.8c-0.2,0-0.3,0-0.5-0.1l-1.7-0.9c-0.2-0.1-0.4-0.1-0.6,0l-1.7,0.9
		c-0.3,0.2-0.7,0.1-0.9-0.3c-0.1-0.1-0.1-0.3-0.1-0.5l0.3-1.9c0-0.2,0-0.4-0.2-0.6l-1.4-1.3c-0.3-0.3-0.3-0.7,0-1
		c0.1-0.1,0.2-0.2,0.4-0.2l1.9-0.3c0.2,0,0.4-0.2,0.5-0.4l0.8-1.7c0.2-0.3,0.6-0.5,0.9-0.3C210.7,68,210.8,68.1,210.9,68.2z"/>
	<path class="st3" d="M86.4,209.1l0.8,1.7c0.1,0.2,0.3,0.3,0.5,0.4l1.9,0.3c0.4,0.1,0.6,0.4,0.6,0.8c0,0.1-0.1,0.3-0.2,0.4l-1.4,1.3
		c-0.2,0.2-0.2,0.4-0.2,0.6l0.3,1.9c0.1,0.4-0.2,0.7-0.5,0.8c-0.2,0-0.3,0-0.5-0.1l-1.7-0.9c-0.2-0.1-0.4-0.1-0.6,0l-1.7,0.9
		c-0.3,0.2-0.7,0.1-0.9-0.3c-0.1-0.1-0.1-0.3-0.1-0.5l0.3-1.9c0-0.2,0-0.4-0.2-0.6l-1.4-1.3c-0.3-0.3-0.3-0.7,0-1
		c0.1-0.1,0.2-0.2,0.4-0.2l1.9-0.3c0.2,0,0.4-0.2,0.5-0.4L85,209c0.2-0.3,0.6-0.5,0.9-0.3C86.2,208.8,86.3,208.9,86.4,209.1z"/>
	<path class="st3" d="M70.7,114.6l0.8,1.7c0.1,0.2,0.3,0.3,0.5,0.4l1.9,0.3c0.4,0.1,0.6,0.4,0.6,0.8c0,0.1-0.1,0.3-0.2,0.4l-1.4,1.3
		c-0.2,0.2-0.2,0.4-0.2,0.6L73,122c0.1,0.4-0.2,0.7-0.5,0.8c-0.2,0-0.3,0-0.5-0.1l-1.7-0.9c-0.2-0.1-0.4-0.1-0.6,0l-1.7,0.9
		c-0.3,0.2-0.7,0.1-0.9-0.3c-0.1-0.1-0.1-0.3-0.1-0.5l0.3-1.9c0-0.2,0-0.4-0.2-0.6l-1.4-1.3c-0.3-0.3-0.3-0.7,0-1
		c0.1-0.1,0.2-0.2,0.4-0.2l1.9-0.3c0.2,0,0.4-0.2,0.5-0.4l0.8-1.7c0.2-0.3,0.6-0.5,0.9-0.3C70.5,114.3,70.6,114.4,70.7,114.6z"/>
	<path class="st3" d="M146.4,157.6l0.5,1c0.1,0.1,0.2,0.2,0.3,0.2l1.1,0.2c0.2,0,0.4,0.2,0.3,0.5c0,0.1-0.1,0.2-0.1,0.2l-0.8,0.8
		c-0.1,0.1-0.1,0.2-0.1,0.4l0.2,1.1c0,0.2-0.1,0.4-0.3,0.5c-0.1,0-0.2,0-0.3,0l-1-0.5c-0.1-0.1-0.3-0.1-0.4,0l-1,0.5
		c-0.2,0.1-0.4,0-0.5-0.1c0-0.1-0.1-0.2,0-0.3l0.2-1.1c0-0.1,0-0.3-0.1-0.4l-0.8-0.8c-0.2-0.2-0.2-0.4,0-0.6
		c0.1-0.1,0.1-0.1,0.2-0.1l1.1-0.2c0.1,0,0.2-0.1,0.3-0.2l0.5-1c0.1-0.2,0.4-0.3,0.6-0.1C146.3,157.5,146.4,157.5,146.4,157.6z"/>
	<path class="st2" d="M115.8,288.6l0.5,1c0.1,0.1,0.2,0.2,0.3,0.2l1.1,0.2c0.2,0,0.4,0.2,0.4,0.5c0,0.1-0.1,0.2-0.1,0.2l-0.8,0.8
		c-0.1,0.1-0.1,0.2-0.1,0.4l0.2,1.1c0,0.2-0.1,0.4-0.3,0.5c-0.1,0-0.2,0-0.3,0l-1-0.5c-0.1-0.1-0.3-0.1-0.4,0l-1,0.5
		c-0.2,0.1-0.4,0-0.6-0.2c0-0.1-0.1-0.2,0-0.2l0.2-1.1c0-0.1,0-0.3-0.1-0.4l-0.8-0.8c-0.2-0.2-0.2-0.4,0-0.6
		c0.1-0.1,0.1-0.1,0.2-0.1l1.1-0.2c0.1,0,0.3-0.1,0.3-0.2l0.5-1c0.1-0.2,0.4-0.3,0.6-0.1C115.7,288.5,115.7,288.5,115.8,288.6z"/>
	<path class="st2" d="M429.9,69.8l0.5,1c0.1,0.1,0.2,0.2,0.3,0.2l1.1,0.2c0.2,0,0.4,0.2,0.4,0.5c0,0.1-0.1,0.2-0.1,0.2l-0.8,0.8
		c-0.1,0.1-0.1,0.2-0.1,0.4l0.2,1.1c0,0.2-0.1,0.4-0.3,0.5c-0.1,0-0.2,0-0.3,0l-1-0.5c-0.1-0.1-0.3-0.1-0.4,0l-1,0.5
		c-0.2,0.1-0.4,0-0.6-0.2c0-0.1-0.1-0.2,0-0.2l0.2-1.1c0-0.1,0-0.3-0.1-0.4l-0.8-0.8c-0.2-0.2-0.2-0.4,0-0.6
		c0.1-0.1,0.1-0.1,0.2-0.1l1.1-0.2c0.1,0,0.3-0.1,0.3-0.2l0.5-1c0.1-0.2,0.3-0.3,0.5-0.2C429.8,69.6,429.9,69.7,429.9,69.8z"/>
	<path class="st3" d="M421.2,258.5l0.9,1.8c0.1,0.2,0.3,0.4,0.5,0.4l2,0.3c0.4,0.1,0.7,0.4,0.6,0.8c0,0.2-0.1,0.3-0.2,0.4l-1.5,1.4
		c-0.2,0.2-0.2,0.4-0.2,0.6l0.3,2c0.1,0.4-0.2,0.7-0.6,0.8c-0.1,0-0.3,0-0.4-0.1l-1.8-0.9c-0.2-0.1-0.5-0.1-0.7,0l-1.6,0.9
		c-0.3,0.2-0.8,0-0.9-0.3c-0.1-0.1-0.1-0.3-0.1-0.4l0.3-2c0-0.2,0-0.5-0.2-0.6l-1.4-1.4c-0.3-0.3-0.3-0.7,0-1
		c0.1-0.1,0.2-0.2,0.4-0.2l2-0.3c0.2,0,0.4-0.2,0.5-0.4l0.9-1.8c0.2-0.3,0.6-0.5,1-0.3C421.1,258.3,421.1,258.4,421.2,258.5z"/>
	<path class="st3" d="M314.1,92.8c0,0.7-0.6,1.3-1.3,1.3c-0.7,0-1.3-0.6-1.3-1.3c0-0.7,0.6-1.3,1.3-1.3l0,0
		C313.5,91.5,314.1,92.1,314.1,92.8z"/>
	<path class="st2" d="M352.3,350.6c0,0.7-0.6,1.3-1.3,1.3s-1.3-0.6-1.3-1.3s0.6-1.3,1.3-1.3l0,0
		C351.7,349.2,352.3,349.8,352.3,350.6L352.3,350.6z"/>
	<path class="st3" d="M128.3,76.2c0,3.1-2.5,5.7-5.7,5.7c-3.1,0-5.7-2.5-5.7-5.7c0-3.1,2.5-5.7,5.7-5.7S128.3,73.1,128.3,76.2
		L128.3,76.2z"/>
	<path class="st2" d="M182.1,113.8c3.4,0.6,6.9,0.9,10.4,0.9c-4.4,5.1-12,5.7-17.1,1.3c-1.5-1.3-2.7-3-3.4-4.8
		C175.2,112.4,178.6,113.2,182.1,113.8z"/>
	<path class="st2" d="M183.9,103.3c-4-0.7-8-1-12-0.8c2.4-6.3,9.4-9.4,15.7-7c4.6,1.8,7.7,6.1,7.8,11
		C191.7,105,187.8,103.9,183.9,103.3z"/>
	<ellipse transform="matrix(0.1666 -0.986 0.986 0.1666 47.5542 269.7206)" class="st2" cx="183.3" cy="106.7" rx="4.2" ry="19.1"/>
	<path class="st2" d="M429.1,195.7c-19.6,39.2-67.2,55.1-106.4,35.5l0,0c-1.6-0.8-3.2-1.6-4.7-2.6c50.7-18.8,76.6-75.2,57.8-126
		C373,95,369.2,87.7,364.6,81c43.7,3.6,76.2,41.9,72.6,85.6C436.4,176.8,433.7,186.6,429.1,195.7z"/>
	<path class="st3" d="M392.9,102.2c4.3,3.2,7,8.1,7.3,13.5c-2.8-3.8-6.1-7.2-9.9-10s-8-5-12.4-6.6C383,97.9,388.5,99,392.9,102.2z"
		/>
	<path class="st3" d="M372.8,222.5c-4.5,3-10.1,3.8-15.2,2.2c4.5-1.3,8.8-3.3,12.8-5.9c3.9-2.6,7.5-5.8,10.5-9.4
		C380.3,214.7,377.3,219.5,372.8,222.5z"/>
	<path class="st3" d="M400.2,147c2.3,4.9,2.3,10.5,0,15.4c-0.6-4.7-2-9.2-4-13.5s-4.6-8.2-7.8-11.7
		C393.5,138.5,397.9,142.1,400.2,147z"/>
	<path class="st3" d="M413,201.4c-3.4,4.2-8.4,6.7-13.8,6.7c3.9-2.6,7.4-5.8,10.4-9.5s5.4-7.8,7.1-12.1
		C417.8,191.8,416.4,197.3,413,201.4z"/>
</g>
<g id="freepik--Shadow--inject-5" class="st0">
	<ellipse id="freepik--path--inject-5" class="st2" cx="245.5" cy="409.1" rx="193.9" ry="11.3"/>
</g>
<g id="freepik--Rocket--inject-5">
	<path class="st4" d="M179.7,60.2l-1.1-0.9c4.8-6.1,9.8-11.8,14.8-17.1l0.9,0.9C189.4,48.6,184.4,54.3,179.7,60.2z"/>
	<rect x="168.2" y="68" transform="matrix(0.6214 -0.7835 0.7835 0.6214 11.3412 160.859)" class="st4" width="7.9" height="1.4"/>
	<path class="st4" d="M279.1,130.5c32.9-52.9,37.4-105,13.5-122c-23.9-17-71.5,4.8-110.3,53.8L71.5,202L185,282L279.1,130.5z"/>
	<path class="st5" d="M266.2,121.4l-96.4,149.8L158,248.7L253.8,112C280.9,73.4,296,38.1,296,18.4c0-0.9,0.8-1.7,1.7-1.7
		c0.8,0,1.4,0.5,1.5,1.1C305.9,37.5,294.1,78,266.2,121.4z"/>
	
		<ellipse transform="matrix(0.5757 -0.8176 0.8176 0.5757 -143.435 207.3987)" class="st4" cx="128.1" cy="241.9" rx="48.2" ry="69.4"/>
	
		<ellipse transform="matrix(0.5757 -0.8176 0.8176 0.5757 -143.435 207.3987)" class="st6" cx="128.1" cy="241.9" rx="48.2" ry="69.4"/>
	<path class="st7" d="M173.2,177.8c-24.8-17.6-53.2-22.6-71.2-14.4l-28.2,35.5c16.7-18.6,52.3-17.3,82.1,3.6s43,54.1,31.1,76.1
		l23.6-37.9C212.6,220.8,198.3,195.5,173.2,177.8z"/>
	<path class="st8" d="M213,63.7c-7,10.9-12.1,31.4,8.3,45.9s38,2.7,46.1-7.6L213,63.7z"/>
	<path class="st9" d="M272.3,89.3c-2.3,19.5-25,33.8-48.6,17.1s-17.9-42.7-0.3-51.5c10.9-5.5,24.7-3,34.1,3.5
		C266.8,64.9,273.8,77.2,272.3,89.3z"/>
	<path class="st4" d="M227,101.7c-9.2-6.5-13.9-15-13.3-23.8c0.6-7.7,5.3-14.7,12.3-18.2c8.2-4.1,19.8-2.9,28.3,3.2
		s13.6,16.5,12.4,25.6c-0.9,7.7-5.8,14.4-12.9,17.6C245.7,109.9,236,108.3,227,101.7z"/>
	<path class="st10" d="M227,101.7c-9.2-6.5-13.9-15-13.3-23.8c0.6-7.7,5.3-14.7,12.3-18.2c8.2-4.1,19.8-2.9,28.3,3.2
		s13.6,16.5,12.4,25.6c-0.9,7.7-5.8,14.4-12.9,17.6C245.7,109.9,236,108.3,227,101.7z"/>
	<path class="st4" d="M227,101.7c-9.2-6.5-14.1-14.7-13.8-23.2c0.3-7.3,4.7-13.8,11.4-17c7.9-3.6,19.4-2.1,27.9,3.9
		s13.8,16.2,13,24.8c-0.6,7.3-5.3,13.6-12.1,16.4C245.6,110.1,236,108.3,227,101.7z"/>
	<path class="st11" d="M227,101.7c-9.2-6.5-14.1-14.7-13.8-23.2c0.3-7.3,4.7-13.8,11.4-17c7.9-3.6,19.4-2.1,27.9,3.9
		s13.8,16.2,13,24.8c-0.6,7.3-5.3,13.6-12.1,16.4C245.6,110.1,236,108.3,227,101.7z"/>
	<path class="st12" d="M258.8,71.6l-42.6,18.8c-2.1-3.6-3.2-7.7-3-11.8c0.2-2,0.5-3.9,1.2-5.8L242,60.7
		C248.5,62.5,254.4,66.3,258.8,71.6L258.8,71.6z"/>
	<path class="st12" d="M264.8,83.7L225.7,101c-2.4-1.7-4.5-3.8-6.4-5.9L262,76.3C263.3,78.6,264.2,81.1,264.8,83.7z"/>
	<path class="st7" d="M307.6,50.1c-1.4-10.5-9.4-22.6-22-31.5C273,9.6,258.8,6.1,248.5,8.4c17.4-7.1,33.2-7.4,44.1,0.3
		C303.5,16.4,308.5,31.1,307.6,50.1z"/>
	
		<ellipse transform="matrix(0.5757 -0.8176 0.8176 0.5757 -126.8763 209.6241)" class="st13" cx="138.6" cy="227.1" rx="15" ry="21.1"/>
	<path class="st13" d="M110.9,232.9c-4.7,6.8-16.4,6.8-25.9,0.2s-13.5-17.7-8.6-24.4c4.8-6.7,16.4-6.8,25.9-0.2
		S115.6,226.1,110.9,232.9z"/>
	<path class="st13" d="M177.1,279.6c-4.7,6.8-16.4,6.8-25.9,0.2c-9.5-6.7-13.5-17.7-8.6-24.4c4.8-6.7,16.4-6.8,25.9-0.2
		C178,261.9,182,272.8,177.1,279.6z"/>
	<path class="st13" d="M132.1,273.2c-4.7,6.8-16.4,6.8-25.9,0.2s-13.5-17.7-8.6-24.4s16.4-6.8,25.9-0.2S136.8,266.4,132.1,273.2z"/>
	<path class="st13" d="M155.9,239.3c-0.5,0.8-1.1,1.4-1.8,2c2.7-6.8-1.4-16.1-9.8-22.1c-8.5-6.1-18.6-6.7-24.1-1.8
		c0.3-0.8,0.8-1.5,1.2-2.3c4.7-6.8,16.4-6.8,25.9-0.2S160.8,232.5,155.9,239.3z"/>
	<path class="st13" d="M110.9,232.9c-0.5,0.8-1.1,1.4-1.7,2c2.7-6.8-1.4-16.1-9.8-22.1c-8.5-6.1-18.6-6.7-24.1-1.8
		c0.3-0.8,0.8-1.5,1.2-2.3c4.7-6.8,16.4-6.8,25.9-0.2S115.6,226.1,110.9,232.9z"/>
	<path class="st13" d="M177.1,279.6c-0.5,0.8-1.1,1.4-1.7,2c2.7-6.8-1.4-16.1-9.8-22.1c-8.5-6.1-18.6-6.7-24.1-1.8
		c0.3-0.8,0.8-1.5,1.2-2.3c4.7-6.8,16.4-6.8,25.9-0.2C178.2,261.9,182,272.8,177.1,279.6z"/>
	<path class="st13" d="M132.1,273.2c-0.5,0.8-1.1,1.4-1.7,2c2.7-6.8-1.4-16.1-9.8-22.1c-8.5-6.1-18.6-6.7-24.1-1.8
		c0.3-0.8,0.8-1.5,1.2-2.3c4.7-6.8,16.4-6.8,25.9-0.2S136.8,266.4,132.1,273.2z"/>
	<path class="st4" d="M146.7,113.9c0,0-20.5,26.5-38.3,49.4c-5.2,6.5-13.3,9.7-21.5,8.6c-15.6-2-40.9,9.1-40.9,9.1
		S93.9,102.3,146.7,113.9z"/>
	<path class="st10" d="M146.7,113.9c0,0-20.5,26.5-38.3,49.4c-5.2,6.5-13.3,9.7-21.5,8.6c-15.6-2-40.9,9.1-40.9,9.1
		S93.9,102.3,146.7,113.9z"/>
	<path class="st4" d="M242.6,181.4c0,0-18,28.2-33.6,52.7c-4.4,7-4.7,15.9-0.9,23.2c7.1,13.9,5.2,41.7,5.2,41.7
		S271.3,227.2,242.6,181.4z"/>
	<path class="st10" d="M242.6,181.4c0,0-18,28.2-33.6,52.7c-4.4,7-4.7,15.9-0.9,23.2c7.1,13.9,5.2,41.7,5.2,41.7
		S271.3,227.2,242.6,181.4z"/>
	<path class="st4" d="M308.6,384.1c18.9-46.4-62.9-59.4-95.3-47.7c-32.4,11.7-65.4,20.3-66.7-10.8s23.6-50.1,11.8-57.4
		c-6.7-3.9-8.5,3-11.7,13.2c-10,31.2-66.5,38.8-40.4,84.1s12.1,35.5-31.7,53.6s-21.2,70.4,21.1,70.4h254.7
		C467.1,489.6,356.6,266.3,308.6,384.1z"/>
	<path class="st14" d="M308.6,384.1c18.9-46.4-62.9-59.4-95.3-47.7c-32.4,11.7-65.4,20.3-66.7-10.8s23.6-50.1,11.8-57.4
		c-6.7-3.9-8.5,3-11.7,13.2c-10,31.2-66.5,38.8-40.4,84.1s12.1,35.5-31.7,53.6s-21.2,70.4,21.1,70.4h254.7
		C467.1,489.6,356.6,266.3,308.6,384.1z"/>
	<path class="st4" d="M168.5,489.6c-0.4,0.1-0.9,0.1-1.3,0.1c-1.1,0.1-2.3,0.2-3.4,0.2H2.4c-0.8,0-1.6,0-2.4,0V333.2
		c3.5-3,6.7-6,9.3-9.1c17.6-21.4,26.5-62.3,44.5-80.3c4.1-4.1,8.1-8,12.1-11.4c3.8-3.3,7.4-6.3,10.7-8.6c8.6-5.9,15.2-7.7,17-1.1
		c2,6.9-1.5,8.6-7.7,11c-4.6,1.7-10.8,3.8-17.2,8.8c-7,5.4-14.4,14.2-20.4,29.7c-7.6,18.8-8.8,30.7,4.2,69.4
		c0.7,2.2,1.5,4.5,2.3,6.8c15.4,44.2-18,31.8-8.8,58.9c3.5,10.2,8.7,16.5,15.1,20.2c28.3,16.1,80.8-18.2,118.2,1.8
		C222.9,452.5,196.5,486.1,168.5,489.6z"/>
	<path class="st14" d="M168.5,489.6c-0.4,0.1-0.9,0.1-1.3,0.1c-1.1,0.1-2.3,0.2-3.4,0.2H2.4c-0.8,0-1.6,0-2.4,0V333.2
		c3.5-3,6.7-6,9.3-9.1c17.6-21.4,26.5-62.3,44.5-80.3c4.1-4.1,8.1-8,12.1-11.4c3.8-3.3,7.4-6.3,10.7-8.6c8.6-5.9,15.2-7.7,17-1.1
		c2,6.9-1.5,8.6-7.7,11c-4.6,1.7-10.8,3.8-17.2,8.8c-7,5.4-14.4,14.2-20.4,29.7c-7.6,18.8-8.8,30.7,4.2,69.4
		c0.7,2.2,1.5,4.5,2.3,6.8c15.4,44.2-18,31.8-8.8,58.9c3.5,10.2,8.7,16.5,15.1,20.2c28.3,16.1,80.8-18.2,118.2,1.8
		C222.9,452.5,196.5,486.1,168.5,489.6z"/>
	<path class="st4" d="M127,228.2c3.9-7.3,17.7-2.9,17.4,6.7c-0.3,9.5-35.9,22.1-29.2,55.1s70,35.5,85,68.5
		c15,33-42.7,37.7-25.6,58.3c17.3,20.6,70.3-26.8,108.2-14.5s75.6,87.4,6.2,87.4H75c-46.5,0-80.4-96-35.8-135.6s8.6-26.7,25.3-52
		S111.7,256.3,127,228.2z"/>
	<path class="st15" d="M127,228.2c3.9-7.3,17.7-2.9,17.4,6.7c-0.3,9.5-35.9,22.1-29.2,55.1s70,35.5,85,68.5
		c15,33-42.7,37.7-25.6,58.3c17.3,20.6,70.3-26.8,108.2-14.5s75.6,87.4,6.2,87.4H75c-46.5,0-80.4-96-35.8-135.6s8.6-26.7,25.3-52
		S111.7,256.3,127,228.2z"/>
</g>
</svg>
